<svg xmlns="http://www.w3.org/2000/svg" viewBox="0 0 88 88" role="img" aria-label="Mongez">
  <defs>
    <linearGradient id="mngz-badge-sm" x1="0" y1="0" x2="1" y2="1">
      <stop offset="0%" stop-color="#3498DB"/>
      <stop offset="100%" stop-color="#1B4F72"/>
    </linearGradient>
    <linearGradient id="mngz-highlight-sm" x1="0" y1="0" x2="0" y2="1">
      <stop offset="0%" stop-color="#ffffff" stop-opacity="0.35"/>
      <stop offset="60%" stop-color="#ffffff" stop-opacity="0"/>
    </linearGradient>
  </defs>

  <rect x="6" y="6" width="76" height="76" rx="20" fill="url(#mngz-badge-sm)"/>
  <rect x="6" y="6" width="76" height="38" rx="20" fill="url(#mngz-highlight-sm)"/>

  <g transform="translate(44,46) rotate(-32)" fill="#ffffff">
    <rect x="-14" y="-5" width="30" height="10" rx="3.5"/>
    <path d="M 14 -14
             a 16 16 0 1 1 0 28
             l 0 -7
             a 9 9 0 1 0 0 -14 z"/>
    <path d="M -14 -3
             l -7 -9
             l -9 0
             l -5 12
             l 5 12
             l 9 0
             l 7 -9
             z"/>
    <circle cx="-24" cy="0" r="5" fill="#1B4F72"/>
  </g>
</svg>
