<svg width="44" height="14" viewBox="0 0 44 14" fill="none" xmlns="http://www.w3.org/2000/svg">
<path d="M31.3011 0.537069C30.2876 0.174763 29.2163 -0.0070442 28.1377 0.000208745C24.6494 0.000208745 22.1858 1.72415 22.1683 4.19885C22.1465 6.0169 23.919 7.04143 25.2598 7.64887C26.6355 8.27343 27.0956 8.66699 27.0912 9.22524C27.0825 10.0744 25.9924 10.4594 24.9786 10.4594C23.5855 10.4594 22.8246 10.269 21.6538 9.79204L21.22 9.59313L20.7251 12.4421C21.5732 12.7886 23.1015 13.0859 24.6799 13.1116C28.3884 13.1116 30.8128 11.3983 30.8411 8.76538C30.8716 7.31307 29.9123 6.21582 27.8935 5.30893C26.6661 4.72074 25.9052 4.32718 25.9052 3.73043C25.9052 3.20212 26.5571 2.63746 27.9197 2.63746C28.8265 2.61593 29.7278 2.78286 30.5642 3.12726L30.8912 3.27057L31.3861 0.517819L31.3011 0.537069ZM40.3532 0.231208H37.628C36.7799 0.231208 36.1411 0.460069 35.7705 1.28568L30.5293 12.9341H34.2378L34.9791 11.024L39.5051 11.0283C39.612 11.4753 39.939 12.9341 39.939 12.9341H43.2093L40.3532 0.231208ZM17.1518 0.124263H20.6858L18.4751 12.8335H14.9454L17.1518 0.119986V0.124263ZM8.18031 7.12912L8.54658 8.89371L12 0.231208H15.7434L10.1817 12.917H6.44707L3.39482 2.17546C3.34538 1.99834 3.22928 1.84622 3.06997 1.74982C1.96985 1.19229 0.804206 0.769198 -0.400879 0.490012L-0.352915 0.222651H5.33518C6.10696 0.252596 6.72831 0.490013 6.93543 1.29851L8.17813 7.13554L8.18031 7.12912ZM35.9929 8.42529L37.4013 4.87046C37.3838 4.90896 37.6912 4.13682 37.87 3.65985L38.112 4.7571L38.9296 8.42315H35.9907L35.9929 8.42529Z" fill="#323135"/>
</svg>
